<?xml version="1.0"?>
<svg xmlns="http://www.w3.org/2000/svg" xmlns:xlink="http://www.w3.org/1999/xlink" version="1.1" width="512" height="512" x="0" y="0" viewBox="0 0 479.976 479.976" style="user-select: auto;" xml:space="preserve" class=""><g style="user-select: auto;">
<g xmlns="http://www.w3.org/2000/svg" style="user-select: auto;">
	<g style="user-select: auto;">
		<path d="M279.339,144.016c-3.789-18.657-20.202-32.059-39.24-32.04c-13.255,0-24-10.745-24-24s10.745-24,24-24s24,10.745,24,24h16    c-0.024-19.001-13.389-35.373-32-39.2v-16.8h-16v16.8c-21.65,4.396-35.636,25.51-31.24,47.16    c3.789,18.657,20.202,32.059,39.24,32.04c13.255,0,24,10.745,24,24s-10.745,24-24,24s-24-10.745-24-24h-16    c0.024,19.001,13.389,35.373,32,39.2v16.8h16v-16.8C269.748,186.779,283.735,165.665,279.339,144.016z" fill="current" data-original="#000000" style="user-select: auto;" class=""/>
	</g>
</g>
<g xmlns="http://www.w3.org/2000/svg" style="user-select: auto;">
	<g style="user-select: auto;">
		<path d="M360.098,119.976C360.085,53.701,306.348-0.014,240.074,0C173.8,0.014,120.085,53.75,120.098,120.025    c0.012,57.014,40.138,106.148,96,117.551v82.4h-8c-1.959,0.002-3.849,0.722-5.312,2.024l-72,64    c-1.708,1.517-2.686,3.692-2.688,5.976v80c0,4.418,3.582,8,8,8h152c13.197,0.058,23.943-10.593,24.002-23.79    c0.027-5.995-2.201-11.781-6.242-16.21c8.32-9.044,8.32-22.956,0-32c8.32-9.044,8.32-22.956,0-32    c8.894-9.75,8.2-24.864-1.55-33.758c-4.429-4.04-10.215-6.268-16.21-6.242h-9.472c-2.42-6.776-7.753-12.108-14.528-14.528v-83.872    C319.936,226.099,360.033,176.98,360.098,119.976z M240.098,387.975v-20h-16v20c0.014,9.117,4.475,17.654,11.952,22.872    c-6.026,9.08-5.082,21.1,2.288,29.128c-6.019,6.444-7.878,15.737-4.8,24h-89.44v-68.408l67.04-59.592h44.96c4.418,0,8,3.582,8,8    v44c0,6.627-5.373,12-12,12C245.471,399.975,240.098,394.603,240.098,387.975z M232.098,319.975v-80.408    c2.656,0.176,5.296,0.408,8,0.408s5.344-0.232,8-0.408v80.408H232.098z M288.098,463.975h-32c-4.418,0-8-3.582-8-8s3.582-8,8-8h32    c4.418,0,8,3.582,8,8S292.517,463.975,288.098,463.975z M280.098,351.975h8c4.418,0,8,3.582,8,8s-3.582,8-8,8h-8V351.975z     M280.098,387.975v-4h8c4.418,0,8,3.582,8,8s-3.582,8-8,8H277.29C279.115,396.237,280.075,392.136,280.098,387.975z     M288.098,415.975c4.418,0,8,3.582,8,8s-3.582,8-8,8h-32c-4.418,0-8-3.582-8-8s3.582-8,8-8H288.098z M240.098,223.975    c-57.41-0.066-103.934-46.59-104-104c0-57.438,46.562-104,104-104s104,46.562,104,104S297.536,223.975,240.098,223.975z" fill="current" data-original="#000000" style="user-select: auto;" class=""/>
	</g>
</g>
<g xmlns="http://www.w3.org/2000/svg" style="user-select: auto;">
	<g style="user-select: auto;">
		<path d="M72.098,311.975c-4.418,0-8-3.582-8-8s3.582-8,8-8s8,3.582,8,8h16c-0.042-10.134-6.445-19.15-16-22.528v-9.472h-16v9.472    c-12.473,4.393-19.023,18.066-14.629,30.539c3.38,9.596,12.455,16.009,22.629,15.989c4.418,0,8,3.582,8,8s-3.582,8-8,8    s-8-3.582-8-8h-16c0.042,10.134,6.445,19.15,16,22.528v9.472h16v-9.472c12.473-4.393,19.023-18.066,14.629-30.539    C91.348,318.369,82.272,311.956,72.098,311.975z" fill="current" data-original="#000000" style="user-select: auto;" class=""/>
	</g>
</g>
<g xmlns="http://www.w3.org/2000/svg" style="user-select: auto;">
	<g style="user-select: auto;">
		<path d="M72.124,247.949c-39.765-0.014-72.012,32.209-72.026,71.974c-0.013,36.679,27.548,67.505,64,71.58v88.472h16v-88.472    c36.414-4.108,63.95-34.883,64-71.528C144.113,280.211,111.889,247.964,72.124,247.949z M72.098,375.975    c-30.928,0-56-25.072-56-56c0-30.928,25.072-56,56-56c30.928,0,56,25.072,56,56C128.059,350.887,103.01,375.936,72.098,375.975z" fill="current" data-original="#000000" style="user-select: auto;" class=""/>
	</g>
</g>
<g xmlns="http://www.w3.org/2000/svg" style="user-select: auto;">
	<g style="user-select: auto;">
		<path d="M408.098,311.975c-4.418,0-8-3.582-8-8s3.582-8,8-8s8,3.582,8,8h16c-0.042-10.134-6.445-19.15-16-22.528v-9.472h-16v9.472    c-12.473,4.393-19.023,18.066-14.629,30.539c3.38,9.596,12.455,16.009,22.629,15.989c4.418,0,8,3.582,8,8s-3.582,8-8,8    s-8-3.582-8-8h-16c0.042,10.134,6.445,19.15,16,22.528v9.472h16v-9.472c12.473-4.393,19.023-18.066,14.63-30.539    C427.348,318.369,418.272,311.956,408.098,311.975z" fill="current" data-original="#000000" style="user-select: auto;" class=""/>
	</g>
</g>
<g xmlns="http://www.w3.org/2000/svg" style="user-select: auto;">
	<g style="user-select: auto;">
		<path d="M479.399,311.748c-4.17-36.255-34.807-63.657-71.301-63.772c-39.764,0.126-71.898,32.463-71.772,72.227    c0.115,36.494,27.517,67.131,63.772,71.301v88.472h16v-88.472C455.602,386.96,483.943,351.252,479.399,311.748z M408.098,375.975    c-30.928,0-56-25.072-56-56c0-30.928,25.072-56,56-56c30.928,0,56,25.072,56,56C464.059,350.887,439.01,375.936,408.098,375.975z" fill="current" data-original="#000000" style="user-select: auto;" class=""/>
	</g>
</g>
<g xmlns="http://www.w3.org/2000/svg" style="user-select: auto;">
</g>
<g xmlns="http://www.w3.org/2000/svg" style="user-select: auto;">
</g>
<g xmlns="http://www.w3.org/2000/svg" style="user-select: auto;">
</g>
<g xmlns="http://www.w3.org/2000/svg" style="user-select: auto;">
</g>
<g xmlns="http://www.w3.org/2000/svg" style="user-select: auto;">
</g>
<g xmlns="http://www.w3.org/2000/svg" style="user-select: auto;">
</g>
<g xmlns="http://www.w3.org/2000/svg" style="user-select: auto;">
</g>
<g xmlns="http://www.w3.org/2000/svg" style="user-select: auto;">
</g>
<g xmlns="http://www.w3.org/2000/svg" style="user-select: auto;">
</g>
<g xmlns="http://www.w3.org/2000/svg" style="user-select: auto;">
</g>
<g xmlns="http://www.w3.org/2000/svg" style="user-select: auto;">
</g>
<g xmlns="http://www.w3.org/2000/svg" style="user-select: auto;">
</g>
<g xmlns="http://www.w3.org/2000/svg" style="user-select: auto;">
</g>
<g xmlns="http://www.w3.org/2000/svg" style="user-select: auto;">
</g>
<g xmlns="http://www.w3.org/2000/svg" style="user-select: auto;">
</g>
</g></svg>
